<svg xmlns="http://www.w3.org/2000/svg" viewBox="0 0 64 64" role="img" aria-label="Juno">
  <defs>
    <radialGradient id="jb" cx="44%" cy="34%" r="62%">
      <stop offset="0%" stop-color="#fffaf5"/>
      <stop offset="38%" stop-color="#d4ecff"/>
      <stop offset="100%" stop-color="#7eb4ff"/>
    </radialGradient>
    <radialGradient id="ja" cx="50%" cy="52%" r="54%">
      <stop offset="0%" stop-color="#ffd8f0" stop-opacity=".34"/>
      <stop offset="55%" stop-color="#b088ff" stop-opacity=".16"/>
      <stop offset="100%" stop-color="#9b6bff" stop-opacity="0"/>
    </radialGradient>
    <linearGradient id="jh" x1="0%" y1="0%" x2="100%" y2="100%">
      <stop offset="0%" stop-color="#ffe8cc"/>
      <stop offset="100%" stop-color="#e07a52"/>
    </linearGradient>
    <linearGradient id="je" x1="0%" y1="0%" x2="0%" y2="100%">
      <stop offset="0%" stop-color="#fff2ea"/>
      <stop offset="100%" stop-color="#ffc8e8"/>
    </linearGradient>
  </defs>
  <circle class="juno-mote-a" cx="14" cy="22" r="1.1" fill="#ffe9c8" opacity=".55"/>
  <circle class="juno-mote-b" cx="50" cy="18" r=".85" fill="#c8e8ff" opacity=".45"/>
  <circle class="juno-aura" cx="32" cy="34" r="28" fill="url(#ja)"/>
  <g class="juno-halo-wrap">
    <path class="juno-halo" d="M16 12 Q32 4 48 12" fill="none" stroke="url(#jh)" stroke-width="2.6" stroke-linecap="round"/>
    <circle class="juno-halo-star" cx="48" cy="11" r="1.35" fill="#ffe9c8"/>
  </g>
  <g class="juno-body-wrap">
    <path class="juno-ear juno-ear-l" d="M20 18 Q18 10 24 14 Z" fill="url(#je)" opacity=".88"/>
    <path class="juno-ear juno-ear-r" d="M44 18 Q46 10 40 14 Z" fill="url(#je)" opacity=".88"/>
    <ellipse class="juno-body" cx="32" cy="37" rx="16" ry="17.5" fill="url(#jb)"/>
    <path class="juno-wisp" d="M22 50 Q32 57 42 50" fill="none" stroke="#a8d8ff" stroke-width="2.2" opacity=".42" stroke-linecap="round"/>
    <g class="juno-eyes">
      <ellipse class="juno-eye" cx="25.5" cy="33.5" rx="2.35" ry="2.55" fill="#243248"/>
      <ellipse class="juno-eye" cx="38.5" cy="33.5" rx="2.35" ry="2.55" fill="#243248"/>
      <circle cx="26.4" cy="32.4" r=".85" fill="#fff" opacity=".95"/>
      <circle cx="39.4" cy="32.4" r=".85" fill="#fff" opacity=".95"/>
      <circle cx="27" cy="34.2" r=".35" fill="#fff" opacity=".55"/>
      <circle cx="40" cy="34.2" r=".35" fill="#fff" opacity=".55"/>
    </g>
    <ellipse cx="20" cy="37" rx="2.4" ry="1.6" fill="#ffb8cc" opacity=".34"/>
    <ellipse cx="44" cy="37" rx="2.4" ry="1.6" fill="#ffb8cc" opacity=".34"/>
    <path class="juno-mouth" d="M26.5 39.2q5.5 3 11 0" fill="none" stroke="#4a6078" stroke-width="1.55" stroke-linecap="round"/>
  </g>
</svg>
